<svg width="106px" height="28px" viewBox="0 0 239 64"><g stroke="none" stroke-width="1" fill="none" fill-rule="evenodd"><path d="M233.227,33.423 C231.036,37.41 228.308,40.486 225.051,42.661 C221.798,44.83 218.293,45.914 214.535,45.914 C212.458,45.914 210.521,45.496 208.718,44.668 C206.913,43.838 205.379,42.635 204.116,41.077 C202.798,39.466 201.883,37.664 201.36,35.658 C200.855,33.65 200.748,31.522 201.057,29.261 C201.368,27.007 202.06,24.87 203.128,22.865 C204.191,20.858 205.606,19.052 207.37,17.451 C209.058,15.912 210.912,14.732 212.93,13.908 C214.943,13.086 217.007,12.67 219.132,12.67 C222.293,12.67 225.02,13.533 227.319,15.254 C229.606,16.974 231.341,19.485 232.509,22.784 L215.866,33.356 L212.864,27.459 L221.91,21.617 C221.431,21.261 220.91,20.992 220.36,20.81 C219.803,20.634 219.222,20.544 218.604,20.544 C216.677,20.544 214.922,21.299 213.37,22.804 C211.796,24.32 210.871,26.17 210.566,28.363 C210.262,30.604 210.666,32.483 211.795,34.002 C212.927,35.523 214.452,36.28 216.39,36.28 C218.195,36.28 219.956,35.723 221.662,34.601 C223.373,33.475 224.915,31.843 226.308,29.701 L233.227,33.423 Z M223.485,59.676 L225.819,59.44 C225.955,60.219 226.239,60.786 226.667,61.152 C227.1,61.52 227.679,61.7 228.405,61.7 C229.173,61.7 229.753,61.54 230.146,61.214 C230.538,60.892 230.733,60.512 230.733,60.078 C230.733,59.794 230.646,59.558 230.483,59.364 C230.323,59.164 230.037,58.995 229.624,58.848 C229.353,58.75 228.711,58.578 227.719,58.328 C226.446,58.014 225.545,57.627 225.029,57.158 C224.304,56.507 223.94,55.714 223.94,54.774 C223.94,54.166 224.108,53.603 224.457,53.074 C224.793,52.551 225.285,52.15 225.931,51.875 C226.568,51.594 227.341,51.46 228.256,51.46 C229.735,51.46 230.848,51.789 231.599,52.451 C232.351,53.108 232.742,53.982 232.78,55.085 L230.388,55.171 C230.283,54.554 230.067,54.112 229.735,53.843 C229.397,53.58 228.895,53.444 228.227,53.444 C227.537,53.444 226.995,53.59 226.604,53.874 C226.354,54.063 226.224,54.306 226.224,54.614 C226.224,54.896 226.345,55.137 226.581,55.337 C226.882,55.594 227.611,55.858 228.776,56.132 C229.933,56.404 230.791,56.69 231.35,56.987 C231.903,57.279 232.34,57.681 232.653,58.192 C232.97,58.699 233.122,59.332 233.122,60.084 C233.122,60.764 232.939,61.398 232.559,61.993 C232.18,62.589 231.646,63.029 230.959,63.318 C230.266,63.605 229.407,63.751 228.377,63.751 C226.881,63.751 225.729,63.406 224.923,62.713 C224.123,62.014 223.643,61 223.485,59.676 Z M0.655,63.75 L0.655,51.894 L2.98,51.894 L7.853,59.836 L7.853,51.894 L10.075,51.894 L10.075,63.75 L7.673,63.75 L2.876,55.967 L2.876,63.75 L0.655,63.75 Z M32.345,63.75 L32.345,51.894 L41.119,51.894 L41.119,53.899 L34.738,53.899 L34.738,56.527 L40.665,56.527 L40.665,58.533 L34.738,58.533 L34.738,61.748 L41.358,61.748 L41.358,63.751 L32.345,63.751 L32.345,63.75 Z M65.76,63.75 L65.76,53.898 L62.267,53.898 L62.267,51.893 L71.644,51.893 L71.644,53.898 L68.155,53.898 L68.155,63.75 L65.76,63.75 Z M94.532,63.75 L91.754,51.894 L94.216,51.894 L95.972,60.04 L98.125,51.894 L101.008,51.894 L103.065,60.177 L104.869,51.894 L107.278,51.894 L104.427,63.75 L101.842,63.75 L99.506,54.882 L97.159,63.75 L94.532,63.75 Z M127.726,57.681 C127.726,56.474 127.908,55.457 128.269,54.631 C128.539,54.03 128.908,53.48 129.374,53.006 C129.838,52.521 130.349,52.165 130.908,51.937 C131.643,51.618 132.495,51.463 133.456,51.463 C135.204,51.463 136.602,52.003 137.65,53.089 C138.695,54.174 139.218,55.689 139.218,57.623 C139.218,59.54 138.697,61.042 137.66,62.121 C136.622,63.21 135.23,63.75 133.491,63.75 C131.73,63.75 130.327,63.21 129.291,62.136 C128.25,61.054 127.726,59.568 127.726,57.681 Z M130.186,57.599 C130.186,58.949 130.498,59.966 131.122,60.662 C131.741,61.358 132.532,61.7 133.487,61.7 C134.444,61.7 135.229,61.359 135.839,60.669 C136.454,59.978 136.762,58.949 136.762,57.564 C136.762,56.206 136.463,55.189 135.861,54.517 C135.269,53.843 134.474,53.511 133.487,53.511 C132.496,53.511 131.7,53.85 131.093,54.529 C130.491,55.208 130.186,56.23 130.186,57.599 Z M160.804,63.75 L160.804,51.894 L165.831,51.894 C167.095,51.894 168.015,51.998 168.587,52.212 C169.16,52.425 169.622,52.805 169.966,53.348 C170.31,53.89 170.485,54.516 170.485,55.21 C170.485,56.103 170.223,56.838 169.702,57.412 C169.18,57.991 168.406,58.359 167.369,58.51 C167.885,58.81 168.312,59.147 168.652,59.506 C168.984,59.866 169.436,60.511 170.006,61.434 L171.452,63.75 L168.588,63.75 L166.875,61.166 C166.255,60.243 165.832,59.659 165.609,59.42 C165.38,59.177 165.143,59.014 164.886,58.929 C164.635,58.835 164.229,58.789 163.677,58.789 L163.195,58.789 L163.195,63.75 L160.804,63.75 Z M163.195,56.896 L164.962,56.896 C166.111,56.896 166.823,56.849 167.115,56.746 C167.397,56.652 167.623,56.489 167.784,56.255 C167.943,56.016 168.02,55.718 168.02,55.362 C168.02,54.966 167.918,54.648 167.705,54.405 C167.491,54.156 167.188,54.007 166.801,53.938 C166.61,53.908 166.029,53.899 165.061,53.899 L163.196,53.899 L163.196,56.896 L163.195,56.896 Z M192.481,63.75 L192.481,51.894 L194.869,51.894 L194.869,57.147 L199.726,51.894 L202.944,51.894 L198.47,56.511 L203.183,63.75 L200.081,63.75 L196.795,58.192 L194.869,60.17 L194.869,63.749 L192.481,63.75 Z M56.462,6.895 C56.268,8.279 54.969,9.401 53.568,9.401 L49.444,9.401 C48.042,9.401 47.061,8.279 47.254,6.895 L47.827,2.841 C48.025,1.457 49.318,0.336 50.724,0.336 L54.846,0.336 C56.249,0.336 57.232,1.457 57.036,2.841 L56.462,6.895 Z M44.531,0.335 L44.223,2.374 L38.376,43.78 L38.062,45.86 L28.41,45.86 L31.073,26.988 L13.465,26.988 L10.8,45.86 L1.13,45.86 L1.421,43.758 L7.252,2.425 L7.565,0.335 L17.226,0.335 L14.605,18.892 L32.213,18.892 L34.832,0.335 L44.531,0.335 Z M46.462,12.685 L55.66,12.685 L50.972,45.914 L41.772,45.914 L46.462,12.685 Z M63.688,45.914 L54.489,45.914 L60.916,0.391 L70.115,0.391 L63.688,45.914 Z M126.821,19.824 L125.122,31.841 C124.726,34.663 124.727,36.447 125.134,37.177 C125.758,38.271 127.052,38.811 129.006,38.811 L132.609,38.811 L131.61,45.915 L124.955,45.915 C120.976,45.915 118.282,44.965 116.867,43.057 C115.451,41.148 115.057,37.95 115.691,33.471 L117.618,19.825 L112.476,19.825 L112.473,19.825 L96.241,19.825 C94.395,19.825 93.203,19.913 92.666,20.086 C91.572,20.442 90.925,21.322 90.728,22.728 C90.562,23.897 90.934,24.787 91.852,25.402 C92.333,25.753 93.787,25.931 96.213,25.931 L101.627,25.931 C105.068,25.931 107.686,26.677 109.474,28.168 C111.462,29.811 112.229,32.227 111.783,35.412 C111.444,37.808 110.463,40.027 108.845,42.051 C107.602,43.606 106.224,44.638 104.71,45.15 C103.192,45.66 100.766,45.916 97.434,45.916 L76.403,45.916 L76.39,45.916 L69.313,45.916 C69.313,45.916 68.563,45.923 67.978,45.24 C67.389,44.556 67.503,43.797 67.503,43.797 L73.334,2.491 C73.334,2.491 73.313,1.903 74.236,1.095 C75.156,0.289 75.739,0.392 75.739,0.392 L82.831,0.392 L77.412,38.778 L95.801,38.778 C97.816,38.778 99.193,38.745 99.933,38.682 C101.577,38.504 102.512,37.589 102.742,35.944 C102.939,34.566 102.542,33.622 101.551,33.107 C101.016,32.82 99.711,32.673 97.634,32.673 L92.09,32.673 C89.931,32.673 88.287,32.54 87.159,32.275 C86.027,32.012 85.013,31.521 84.116,30.813 C83.02,29.926 82.223,28.728 81.722,27.219 C81.225,25.712 81.099,24.081 81.346,22.328 C81.817,19.004 83.399,16.366 86.095,14.417 C87.701,13.262 90.303,12.686 93.907,12.686 L113.477,12.686 L113.481,12.686 L118.622,12.686 L120.053,2.532 C120.053,2.532 120.072,1.952 120.999,1.142 C121.929,0.331 122.454,0.391 122.454,0.391 L129.558,0.391 L127.825,12.685 L136.229,12.685 L135.223,19.824 L126.821,19.824 Z M201.434,14.825 L197.341,43.81 L196.996,45.914 L187.843,45.914 L191.527,19.824 L183.646,19.824 C181.998,19.824 180.76,20.181 179.929,20.906 C179.102,21.626 178.574,22.811 178.339,24.45 L175.313,45.914 L166.111,45.914 L168.996,25.48 C169.648,20.848 171.295,17.471 173.931,15.36 C175.19,14.335 176.543,13.631 178.001,13.252 C179.458,12.872 181.501,12.684 184.124,12.684 L199.601,12.684 C199.601,12.684 200.261,12.62 200.929,13.393 C201.589,14.167 201.434,14.825 201.434,14.825 Z M165.451,36.95 C165.03,39.922 164.037,42.165 162.475,43.667 C160.909,45.162 158.785,45.914 156.099,45.914 L140.762,45.914 C138.052,45.914 136.124,45.162 134.971,43.667 C133.824,42.165 133.458,39.922 133.879,36.95 L136.036,21.712 C136.472,18.655 137.459,16.393 139.008,14.912 C140.56,13.435 142.711,12.696 145.467,12.696 L160.798,12.696 C163.556,12.696 165.495,13.43 166.596,14.891 C167.705,16.358 168.04,18.632 167.605,21.711 L165.451,36.95 Z M142.92,38.086 L156.166,38.086 L158.664,20.447 L145.419,20.447 L142.92,38.086 Z M0.655,49.738 L0.844,48.41 L233.29,48.41 L233.102,49.738 L0.655,49.738 Z M234.982,11.07 L234.432,11.07 L234.432,7.312 L235.515,7.312 C235.966,7.312 236.312,7.417 236.547,7.623 C236.784,7.831 236.903,8.134 236.903,8.528 C236.903,8.835 236.802,9.086 236.608,9.294 C236.407,9.499 236.15,9.61 235.835,9.624 L236.903,11.07 L236.222,11.07 L234.981,9.321 L234.981,11.07 L234.982,11.07 Z M234.982,9.264 L235.255,9.264 C235.635,9.264 235.916,9.199 236.099,9.081 C236.282,8.953 236.374,8.771 236.374,8.521 C236.374,8.278 236.296,8.1 236.135,7.988 C235.98,7.873 235.73,7.817 235.385,7.817 L234.982,7.817 L234.982,9.264 Z M238.239,9.172 C238.239,7.643 236.992,6.397 235.46,6.397 C233.932,6.397 232.692,7.642 232.692,9.172 C232.692,9.914 232.978,10.609 233.502,11.13 C234.025,11.656 234.72,11.945 235.46,11.945 C236.202,11.945 236.901,11.656 237.424,11.13 C237.946,10.609 238.239,9.914 238.239,9.172 Z M235.461,5.87 C237.28,5.87 238.765,7.353 238.765,9.172 C238.765,10.052 238.421,10.882 237.797,11.505 C237.176,12.13 236.344,12.472 235.461,12.472 C234.582,12.472 233.752,12.13 233.131,11.505 C232.508,10.883 232.159,10.052 232.159,9.172 C232.159,7.353 233.644,5.87 235.461,5.87 Z" fill="currentColor"></path></g></svg>
